<svg width="411" height="415" viewBox="0 0 411 415" fill="none" xmlns="http://www.w3.org/2000/svg">
<path d="M196.069 149.204C211.548 136.305 231.9 104.893 240.142 90.7998C240.38 89.1277 242.22 85.9985 247.666 86.8584C254.474 87.9333 258.415 106.207 254.474 117.673C248.98 132.842 234.982 164.325 222.943 168.912L322.195 228.391C325.778 216.567 334.019 221.225 336.169 221.942C338.319 222.658 340.469 224.091 341.543 227.316C342.618 230.541 344.41 247.382 336.169 248.815C335.094 251.323 302.129 259.922 300.338 259.922C277.693 282.854 240.022 291.454 224.018 292.887C172.66 340.423 110.18 405.5 110.18 405.5L58.2922 414.481C58.3377 414.5 58.1806 414.5 58.1806 414.5L58.2922 414.481C58.0684 414.386 52.947 413.824 0.180485 410.5C-6.39394 410.086 168.838 229.824 167.405 225.883C165.971 221.942 183.17 178.586 185.32 174.645C187.47 170.703 190.336 160.312 196.069 149.204Z" fill="#F6CAA5"/>
<path d="M237.242 187.901C236.955 185.035 233.3 166.403 231.509 157.445L215.026 174.644C222.551 180.257 237.528 190.768 237.242 187.901Z" fill="#F6CAA5"/>
<path d="M163.186 232.689L162.973 231.712L161.019 232.137L161.231 233.114L163.186 232.689ZM180.485 256.052C181.001 256.248 181.579 255.989 181.775 255.473C181.972 254.957 181.713 254.379 181.197 254.183L180.485 256.052ZM163.123 233.354L163.216 232.358L161.225 232.171L161.132 233.167L163.123 233.354ZM166.581 252.657C167.003 253.013 167.634 252.959 167.99 252.536C168.346 252.114 168.292 251.483 167.869 251.127L166.581 252.657ZM205.067 285.676C204.728 285.24 204.1 285.162 203.664 285.501C203.228 285.84 203.149 286.468 203.488 286.904L205.067 285.676ZM217.652 297.839L218.452 298.439L219.652 296.839L218.852 296.239L217.652 297.839ZM161.231 233.114C162.462 238.777 168.001 251.296 180.485 256.052L181.197 254.183C169.602 249.765 164.343 238.015 163.186 232.689L161.231 233.114ZM161.132 233.167C160.947 235.141 160.857 238.746 161.515 242.464C162.168 246.154 163.59 250.139 166.581 252.657L167.869 251.127C165.414 249.06 164.108 245.639 163.484 242.115C162.865 238.619 162.95 235.201 163.123 233.354L161.132 233.167ZM203.488 286.904C207.32 291.83 210.552 294.342 213.056 295.76C214.306 296.467 215.355 296.891 216.164 297.201C216.579 297.359 216.891 297.474 217.16 297.587C217.43 297.701 217.573 297.78 217.652 297.839L218.852 296.239C218.572 296.03 218.245 295.874 217.937 295.744C217.627 295.614 217.254 295.476 216.879 295.333C216.11 295.038 215.166 294.656 214.042 294.019C211.798 292.75 208.76 290.424 205.067 285.676L203.488 286.904Z" fill="#E0A68A"/>
<rect x="283.408" width="124.692" height="232.11" rx="19" transform="rotate(17.5048 283.408 0)" fill="#233B34"/>
<rect x="285.359" y="10.033" width="115.376" height="214.769" rx="19" transform="rotate(17.5048 285.359 10.033)" fill="#296044"/>
<path d="M341.083 129.708C341.083 147.862 326.209 162.606 307.827 162.606C289.446 162.606 274.571 147.862 274.571 129.708C274.571 111.554 289.446 96.8103 307.827 96.8103C326.209 96.8103 341.083 111.554 341.083 129.708Z" fill="#264C3B" stroke="#87A696" stroke-width="3"/>
<path d="M372.389 132.384C381.466 131.548 384.865 130.067 402.846 135.967C409.394 138.116 414.67 152.091 404.995 155.674C397.256 158.541 373.822 162.841 363.073 164.632C368.328 165.11 379.269 166.495 380.989 168.215C383.138 170.365 387.796 171.44 388.155 179.681C388.513 187.922 383.497 189.356 376.331 190.789C369.164 192.222 355.907 195.089 353.04 195.089C358.057 195.18 363.073 201.896 363.073 209.421C363.073 216.945 355.19 223.037 353.04 222.32C349.935 223.634 343.509 226.333 342.649 226.62C341.789 226.906 343.724 221.142 344.799 218.224C344.004 217.769 343.268 217.332 342.649 216.945C339.783 215.154 334.05 210.496 336.916 201.896C339.194 195.064 348.493 194.499 352.949 195.076C350.973 194.518 358.834 174.641 363.073 164.632L372.389 132.384Z" fill="#F6CAA5"/>
<path d="M170.693 226.229C168.185 249.877 214.407 266.001 231.248 254.893C253.765 222.685 245.555 177.178 238.533 158.113C240.046 155.617 244.864 147.257 252.03 133.784C265.646 109.777 254.896 94.3703 252.03 88.9956C249.163 83.621 243.789 88.9956 241.281 92.2204C238.772 95.4452 232.323 109.061 229.456 114.436C227.163 118.735 204.613 145.131 193.625 157.791C193.984 160.658 173.202 202.58 170.693 226.229Z" fill="#F6CAA5"/>
<path d="M243.966 231.614L244.111 230.624L242.132 230.333L241.987 231.323L243.966 231.614ZM229.348 254.79C228.97 255.193 228.99 255.826 229.392 256.204C229.795 256.582 230.428 256.562 230.806 256.159L229.348 254.79ZM241.987 231.323C241.418 235.193 238.087 245.488 229.348 254.79L230.806 256.159C239.84 246.543 243.34 235.865 243.966 231.614L241.987 231.323Z" fill="#E0A68A"/>
<path d="M323.906 227.742C325.913 221.436 335.492 223.681 340.03 225.592C342.538 226.497 345.405 253.182 335.73 248.882C326.056 244.583 321.398 235.625 323.906 227.742Z" fill="#F6CAA5"/>
</svg>
