<svg width="33" height="32" viewBox="0 0 33 32" fill="none" xmlns="http://www.w3.org/2000/svg">
<path d="M16.1401 8L14.7101 9.393L20.2901 15H8.14014V17H20.2901L14.7101 22.573L16.1401 24L24.1401 16L16.1401 8Z" fill="black"/>
<path d="M16.1401 30C13.3712 30 10.6644 29.1789 8.36216 27.6406C6.05987 26.1022 4.26546 23.9157 3.20583 21.3576C2.1462 18.7994 1.86896 15.9845 2.40915 13.2687C2.94934 10.553 4.28271 8.05845 6.24065 6.10051C8.19858 4.14258 10.6931 2.80921 13.4089 2.26901C16.1246 1.72882 18.9395 2.00607 21.4977 3.06569C24.0559 4.12532 26.2424 5.91973 27.7807 8.22202C29.3191 10.5243 30.1401 13.2311 30.1401 16C30.1359 19.7117 28.6596 23.2702 26.035 25.8948C23.4104 28.5194 19.8519 29.9958 16.1401 30ZM16.1401 4.00001C13.7668 4.00001 11.4467 4.70379 9.4733 6.02237C7.49991 7.34095 5.96184 9.21509 5.05359 11.4078C4.14534 13.6005 3.9077 16.0133 4.37072 18.3411C4.83374 20.6689 5.97663 22.8071 7.65486 24.4853C9.33309 26.1635 11.4713 27.3064 13.7991 27.7694C16.1268 28.2325 18.5396 27.9948 20.7323 27.0866C22.9251 26.1783 24.7992 24.6402 26.1178 22.6668C27.4364 20.6935 28.1401 18.3734 28.1401 16C28.1364 12.8185 26.871 9.76845 24.6213 7.51882C22.3717 5.26918 19.3216 4.00371 16.1401 4.00001Z" fill="black"/>
</svg>
