<svg xmlns="http://www.w3.org/2000/svg" width="169.764" height="72.385" viewBox="0 0 169.764 72.385"><g transform="translate(-602.845 -2217.039)"><path d="M-74.781.63a11.735,11.735,0,0,1-6.636-1.785,9.41,9.41,0,0,1-3.738-4.557l3.024-2.1A8.8,8.8,0,0,0-79.149-4.2a7.334,7.334,0,0,0,4.284,1.344,5.249,5.249,0,0,0,3.591-1.2A3.917,3.917,0,0,0-69.909-7.14a4.152,4.152,0,0,0-1.428-3.108,13.893,13.893,0,0,0-3.444-2.331q-2.016-.987-4.032-2.121a10.893,10.893,0,0,1-3.444-3.066A7.422,7.422,0,0,1-83.685-22.3a7.008,7.008,0,0,1,2.436-5.586,9,9,0,0,1,6.09-2.1q6.72,0,8.988,5.25l-2.94,2.1Q-71.463-26.5-74.949-26.5a4.723,4.723,0,0,0-3.213,1.113A3.545,3.545,0,0,0-79.443-22.6a3.819,3.819,0,0,0,1.449,2.919,15.146,15.146,0,0,0,3.507,2.268q2.058.987,4.1,2.121A10.933,10.933,0,0,1-66.906-12.2a7.374,7.374,0,0,1,1.449,4.515,7.549,7.549,0,0,1-2.625,6.111A10.059,10.059,0,0,1-74.781.63Zm33.6-30.45v3.57h-7.9V0h-4.2V-26.25h-7.854v-3.57ZM-22.323.63A14.359,14.359,0,0,1-32.781-3.738a15.052,15.052,0,0,1-4.41-11.172,15.052,15.052,0,0,1,4.41-11.172A14.359,14.359,0,0,1-22.323-30.45a14.407,14.407,0,0,1,10.5,4.368A15.052,15.052,0,0,1-7.413-14.91a15.052,15.052,0,0,1-4.41,11.172A14.407,14.407,0,0,1-22.323.63ZM-29.631-6.3a10.069,10.069,0,0,0,7.308,3.066,10.1,10.1,0,0,0,7.329-3.087q3.129-3.087,3.129-8.589T-14.994-23.5a10.1,10.1,0,0,0-7.329-3.087A10.035,10.035,0,0,0-29.631-23.5q-3.108,3.087-3.108,8.589T-29.631-6.3ZM16.485,0l-7.6-11.592H4.767V0H.567V-29.82H9.975A13.21,13.21,0,0,1,17.892-27.7q2.919,2.121,2.919,6.615a9,9,0,0,1-1.974,6.027,9.5,9.5,0,0,1-5.376,3.087L21.525,0ZM4.767-26.25v11.3H9.723q6.426,0,6.426-5.67,0-5.628-6.426-5.628ZM29.421,0V-29.82h4.2V0ZM59.409-26.25H47.733v9.072h10v3.486h-10V-3.57H59.409V0H43.533V-29.82H59.409ZM75.285.63a11.735,11.735,0,0,1-6.636-1.785,9.41,9.41,0,0,1-3.738-4.557l3.024-2.1A8.8,8.8,0,0,0,70.917-4.2,7.334,7.334,0,0,0,75.2-2.856a5.249,5.249,0,0,0,3.591-1.2A3.917,3.917,0,0,0,80.157-7.14a4.152,4.152,0,0,0-1.428-3.108,13.893,13.893,0,0,0-3.444-2.331q-2.016-.987-4.032-2.121a10.893,10.893,0,0,1-3.444-3.066A7.422,7.422,0,0,1,66.381-22.3a7.008,7.008,0,0,1,2.436-5.586,9,9,0,0,1,6.09-2.1q6.72,0,8.988,5.25l-2.94,2.1Q78.6-26.5,75.117-26.5A4.723,4.723,0,0,0,71.9-25.389,3.545,3.545,0,0,0,70.623-22.6a3.819,3.819,0,0,0,1.449,2.919,15.146,15.146,0,0,0,3.507,2.268q2.058.987,4.1,2.121A10.933,10.933,0,0,1,83.16-12.2a7.374,7.374,0,0,1,1.449,4.515,7.549,7.549,0,0,1-2.625,6.111A10.059,10.059,0,0,1,75.285.63Z" transform="translate(688 2268.103)" fill="#0e382c"/><g transform="translate(675.707 2223.539) rotate(90)"><path d="M5.826,96.93c2.988,0,4.587,1.668,4.587,4.785,0,3.06-1.643,4.786-4.558,4.786H.56v-3.44H5.686c1.421,0,2.047-.391,2.047-1.317s-.568-1.374-2.192-1.374H.56V96.93Z" transform="translate(-6.848 -126.305)" fill="#0e382c"/><path d="M3.01,222.61h7.206v3.475H3.01v2.909H.56V219.7H3.01Z" transform="translate(-6.848 -202.654)" fill="#0e382c"/><path d="M2.763,194.844l3.307.856v-1.735Zm7.453-2.237-1.768.581v3.264l1.768.617v3.465L.561,197.018v-4.4l9.656-3.476Z" transform="translate(-6.849 -183.65)" fill="#0e382c"/><path d="M9.144,67.441l-2.5,1.042a3.462,3.462,0,0,1,.876,2.247A2.324,2.324,0,0,1,5.027,73a2.292,2.292,0,0,1-2.547-2.218,3.768,3.768,0,0,1,.942-2.3L.974,67.455a8.106,8.106,0,0,0-.931,3.879A4.868,4.868,0,0,0,5,76.474a4.88,4.88,0,0,0,5.093-5.238,7.034,7.034,0,0,0-.948-3.794" transform="translate(-6.527 -107.966)" fill="#0e382c"/><path d="M10.216,40.134,6.7,42.311h3.52v3.375H.561V42.311H4.1L.561,40.272V36.5l4.76,3.17,4.9-3.576Z" transform="translate(-6.849 -88.473)" fill="#0e382c"/><path d="M10.091,252.3c0-2.189-.78-4.46-3.251-4.46-2.227,0-2.834,1.895-3.153,3.373-.239,1.113-.352,1.647-.8,1.647-.59,0-.636-.751-.636-1.152a5.353,5.353,0,0,1,.9-2.738l-2.2-.9a10.416,10.416,0,0,0-.906,3.94c0,2.271,1.1,4.049,3.305,4.049,1.809,0,2.507-1.372,2.881-2.886.259-1.048.336-1.72.856-1.72s.671.515.671,1.012a4.5,4.5,0,0,1-1.039,2.808l2.132,1.089a7.574,7.574,0,0,0,1.243-4.061" transform="translate(-6.526 -220.153)" fill="#0e382c"/><path d="M10.091,15.234c0-2.19-.78-4.46-3.251-4.46-2.227,0-2.834,1.894-3.153,3.372-.239,1.114-.352,1.647-.8,1.647-.59,0-.636-.75-.636-1.153a5.351,5.351,0,0,1,.9-2.738L.948,11a10.418,10.418,0,0,0-.906,3.941c0,2.271,1.1,4.049,3.305,4.049,1.809,0,2.507-1.373,2.881-2.887.259-1.049.336-1.72.856-1.72s.671.515.671,1.012A4.5,4.5,0,0,1,6.716,18.2l2.132,1.09a7.572,7.572,0,0,0,1.243-4.06" transform="translate(-6.526 -72.727)" fill="#0e382c"/><path d="M6.608,161a2.9,2.9,0,0,0-2.734-1.822c-2.279,0-3.313,1.558-3.313,3.769v5.217h9.656v-3.348H7.352v-.845l2.865-1.74v-3.612Zm-2.72,1.566a.947.947,0,0,1,1,1.06v1.188H2.871v-1.2a.924.924,0,0,1,.987-1.047Z" transform="translate(-6.849 -164.666)" fill="#0e382c"/><path d="M8.135,137.505h2.082v-5.288c0-2.554-.9-3.825-2.723-3.825a2.1,2.1,0,0,0-2.208,2.079A2.047,2.047,0,0,0,3.129,128.6C1.486,128.6.561,129.83.561,132v5.507H8.135m-5.482-3.313V132.98c0-.642.277-1.058.841-1.058h.026c.54,0,.854.4.854,1.069v1.2Zm4.571-2.321c.568,0,.9.414.9,1.094v1.227H6.313v-1.239c0-.656.29-1.082.886-1.082Z" transform="translate(-6.849 -145.871)" fill="#0e382c"/><path d="M1.436,2.86H1.429A1.43,1.43,0,0,1,1.421,0h.008a1.43,1.43,0,0,1,.007,2.86M1.429.2H1.421A1.218,1.218,0,0,0,.19,1.426,1.227,1.227,0,0,0,1.429,2.66h.007A1.216,1.216,0,0,0,2.667,1.433,1.227,1.227,0,0,0,1.429.2M.659,1.987V1.335A.61.61,0,0,1,.812.9.386.386,0,0,1,1.1.786H1.1a.429.429,0,0,1,.427.377L2.115.711V.978l-.549.42V1.77h.549v.217Zm.714-.633c0-.2-.094-.345-.259-.345H1.107c-.153,0-.251.126-.251.335V1.77h.517Z" transform="translate(-6.5 -66.026)" fill="#0e382c"/></g><path d="M-49.968-2.88h3v.852h-3.18V-.972h3.18V-.12h-4.608V1H-41.34V-.12H-45.7V-.972h3.372V-2.028H-45.7V-2.88h3.816v-1.1H-45.7v-.768h-1.272v.768h-2.52c.072-.216.156-.444.24-.672l-1.128-.252A8.931,8.931,0,0,1-52.02-1.9l.828.972A9.762,9.762,0,0,0-49.968-2.88Zm-.588-6.648v4.464h7.992V-9.528Zm6.744,3.42H-49.32v-.7h5.508Zm-5.508-1.68v-.684h5.508v.684ZM-31.9-8.124v2.988h-2.712V-8.124Zm1.272,2.988V-8.124h2.7v2.988Zm3.936-4.188H-35.88V-.432c0,.864.468,1.3,1.428,1.3h7.128a1.329,1.329,0,0,0,1.3-1.08,14.332,14.332,0,0,0,.312-2.04l-1.212-.384A9.152,9.152,0,0,1-27.18-.768a.605.605,0,0,1-.564.432h-6.192c-.456,0-.672-.2-.672-.6V-3.948h7.92Zm10.452-.552v1.14H-20.8v1.212h4.56v.972h-3.24V-2.8h1.62A3.165,3.165,0,0,1-18.6-1.032,5.935,5.935,0,0,1-21.084.252l.792,1.044A7.2,7.2,0,0,0-17.436-.432,4.7,4.7,0,0,0-16.572-2.8h1.632V-.36c0,.924.432,1.392,1.32,1.392h1.98A1.919,1.919,0,0,0-10.6.744c.216-.168.384-.78.516-1.812l-1.188-.384c-.048.672-.144,1.044-.276,1.14a.815.815,0,0,1-.408.132H-13.26c-.3,0-.444-.132-.444-.4V-2.8h1.968V-6.552h-3.228v-.972h4.56V-8.736h-4.56v-1.14Zm3.276,5.9h-5.28v-1.4h5.28Zm10.716-4.9H-5.2V-.192h1.128V-1.08h1.824ZM-4.068-2.124V-7.812h.732v5.688Zm2.832-7.752v1.56h-.7V-7.14h.7v1.368Q-1.254-1.488-2.868.456l.888.792Q-.144-.984-.108-5.772V-7.14h.7C.564-3.9.528-2,.468-1.464.42-.5.24-.012-.06-.012a6.154,6.154,0,0,1-.732-.06L-.5,1.056a4.675,4.675,0,0,0,.648.072c.84,0,1.308-.672,1.4-2q.162-1.4.168-7.44H-.108v-1.56ZM5.22-8.7H2.244V1.008h1.1V.468h.744V.984H5.22ZM3.348-.624V-7.6h.744V-.624ZM13.572-9H10.44V.312h1.2V-.6H12.4V.024h1.176ZM11.64-1.776V-7.824H12.4v6.048ZM17.868-9.84V1.248h1.2v-2.52H21.12V-2.4H19.068V-4.14h1.656V-5.268H19.068V-6.924h1.968V-8.052H19.068V-9.84Zm-3.84,1.788v1.128h1.8v1.656H14.28V-4.14h1.548v.168a8.9,8.9,0,0,1-.156,1.548,13.754,13.754,0,0,1-1.92.264L13.932-1c.516-.084.972-.168,1.368-.264A4.419,4.419,0,0,1,13.92.468l.948.84q2.088-1.674,2.148-5.28V-9.84H15.828v1.788ZM32.544-6.72H34.6a9.321,9.321,0,0,1-1.068,4.128,6.968,6.968,0,0,1-.96-2.724l-.864.252A11.868,11.868,0,0,0,32.544-6.72Zm.264,5.172A7.6,7.6,0,0,1,30.672.168V-4.116H29.064V-6.288h1.9v-1.2h-1.9V-9.7H27.852v2.208H25.824v1.2h2.028v2.172H26.268V1.068h1.188V.276h3.2l.612.972a9.341,9.341,0,0,0,2.28-1.836A9.452,9.452,0,0,0,35.988,1.32L36.744.312a8.8,8.8,0,0,1-2.46-1.884A10.272,10.272,0,0,0,35.772-6.72h.792V-7.944h-3.6a16.912,16.912,0,0,0,.4-1.7L32.2-9.864A10.123,10.123,0,0,1,30.252-5.1l.756.948q.27-.324.54-.684A8.1,8.1,0,0,0,32.808-1.548Zm-5.352.7V-3h2.016V-.852ZM42.624-7.7v2.52h3.552v.552H42.384v.96h3.792v.6H41.292v1h4.884v.588h-3.8V-.5h3.8v.252c0,.24-.144.36-.42.36a12.786,12.786,0,0,1-1.32-.084L44.7,1.2h1.476C47,1.2,47.424.816,47.424.048V-.5h3.708V-2.076h1.176v-1H51.132v-1.56H47.424v-.552h3.552V-7.7H47.424v-.54h4.56V-9.3h-4.56v-.588H46.176V-9.3h-4.56v1.056h4.56v.54Zm7.1,1.608h-2.3V-6.78h2.3Zm-3.552,0h-2.3V-6.78h2.3Zm1.248,2.424h2.52v.6h-2.52Zm2.52,1.6v.588h-2.52v-.588Z" transform="translate(688 2288.103)" fill="#0e382c"/></g></svg>